<?xml version="1.0" encoding="UTF-8"?>
<!-- Generator: Adobe Illustrator 21.0.0, SVG Export Plug-In . SVG Version: 6.00 Build 0)  -->
<svg version="1.1" id="Capa_1" xmlns="http://www.w3.org/2000/svg" xmlns:xlink="http://www.w3.org/1999/xlink" x="0px" y="0px" viewBox="0 0 2048 2048" style="enable-background:new 0 0 2048 2048;" xml:space="preserve">
<style type="text/css">
	.st0{fill:#FF7EFA;}
</style>
<path class="st0" d="M1026.4,0C457.9-0.6,0.9,455.2,0.3,1022.5C-0.3,1590.4,456.1,2047.4,1023.4,2048s1024.9-456.4,1024.3-1023.7  C2048.3,457.6,1591.9,0.6,1026.4,0z M1631.4,342.6c-124.6,124.6-249.2,249.2-370.8,370.2c-181.5-180.9-364.8-364.2-548.7-548.1  C1021,44.3,1402.6,121.6,1631.4,342.6z M277,495.4c78.5-110.2,176.7-198.9,293.5-267.8c17.4-10.2,29.4-11.4,46.1,5.4  c182.1,183.3,364.8,366,547.5,548.7c5.4,5.4,10.2,11.4,14.4,16.2c-125.2,125.2-249.2,249.2-375,375  c-193.5-191.1-385.2-387-585.8-583.4C233.9,563.7,253.7,528.3,277,495.4z M167.4,705.6c183.3,183.3,366.6,367.8,549.9,551.7  c-121.6,121.6-247.4,248-373.2,374.4C133.3,1462.2,36.8,950.6,167.4,705.6z M1007.8,1939.6c-219.2-6-414.5-79.1-579.8-222.2  c127.6-127,254-252.8,379.2-378c177.9,177.9,357.6,357.6,539.1,540.3C1238.4,1924,1124.6,1943.2,1007.8,1939.6z M1460.1,1825.8  c-190.5-190.5-381-381-569.1-569.7c274.9-274.9,550.5-549.9,826.6-826.6C2107,872.2,1962.6,1565.8,1460.1,1825.8z"/>
</svg>